<svg xmlns="http://www.w3.org/2000/svg" viewBox="0 0 1200 620"><rect width="1200" height="620" rx="28" fill="#f0ede5"/><text x="50" y="62" fill="#171717" font-family="monospace" font-size="18">KISSME INSIGHT / USER 360</text><text x="1000" y="62" fill="#777" font-family="monospace" font-size="14">READ ONLY · AUDITED</text><rect x="50" y="94" width="1100" height="1" fill="#c9c2b6"/><rect x="50" y="130" width="1100" height="98" rx="14" fill="#171717"/><text x="82" y="171" fill="#c9f66d" font-family="monospace" font-size="13">USER_360 / LIFECYCLE</text><text x="82" y="205" fill="#fff" font-family="Arial" font-size="24" font-weight="700">53.7 万激活用户 · 116 万会话</text><text x="760" y="171" fill="#aaa" font-family="monospace" font-size="13">MESSAGE ROUTING</text><text x="760" y="205" fill="#fff" font-family="monospace" font-size="16">CRC32(conversation_id) % 128</text><rect x="50" y="260" width="700" height="290" rx="14" fill="#fff" stroke="#d0c9bc"/><text x="80" y="300" fill="#777" font-family="monospace" font-size="13">ENGAGEMENT TREND / 30 DAYS</text><path d="M80 492 C180 430 220 460 295 398 S430 420 510 340 S640 370 710 302" fill="none" stroke="#7b74ff" stroke-width="5"/><path d="M80 492 C180 460 220 480 295 450 S430 455 510 420 S640 440 710 402" fill="none" stroke="#ff744b" stroke-width="3" stroke-dasharray="7 7"/><g fill="#777" font-family="monospace" font-size="12"><text x="80" y="525">D-30</text><text x="665" y="525">TODAY</text><text x="80" y="335">active users</text><text x="80" y="360">purchases</text></g><rect x="780" y="260" width="370" height="290" rx="14" fill="#c9f66d"/><text x="810" y="300" fill="#171717" font-family="monospace" font-size="13">EVIDENCE PANEL</text><text x="810" y="350" fill="#171717" font-family="Arial" font-size="22" font-weight="700">需求满足度</text><text x="810" y="389" fill="#171717" font-family="Arial" font-size="42" font-weight="700">0.82</text><text x="810" y="430" fill="#444" font-family="monospace" font-size="13">confidence · 0.91</text><text x="810" y="468" fill="#444" font-family="monospace" font-size="13">model · insight-v3</text><text x="810" y="505" fill="#444" font-family="monospace" font-size="13">evidence · msg_1842</text></svg>
